<svg xmlns="http://www.w3.org/2000/svg" width="32" height="32" viewBox="0 0 519.64 284">
    <defs>
        <style>.cls-1{fill:#1d1d1b;}</style>
    </defs>
    <g id="Calque_2">
        <g id="Calque_1-2">
            <text/>
            <path class="cls-1" d="M109.25,54.8v56.8h91.6v52.8h-91.6V226h103.6v54.8h-172V0h172V54.8Z"/>
            <path class="cls-1"
                  d="M422.84,161a68.77,68.77,0,0,1,14.8,43.4q0,35.21-24.6,55.8t-68.6,20.6H213.64V0H340q42.79,0,67,19.6t24.2,53.2q0,24.81-13,41.2t-34.6,22.8Q408,142,422.84,161ZM282,113.6h44.8q16.8,0,25.8-7.4t9-21.8q0-14.4-9-22t-25.8-7.6H282Zm77,104.2q9.39-7.8,9.4-22.6t-9.8-23.2q-9.81-8.4-27-8.4H282v62h50.4Q349.63,225.6,359,217.8Z"/>
            <path class="cls-1"
                  d="M449.84,273.4a34.34,34.34,0,0,1-11.4-26.2,35.43,35.43,0,0,1,11.4-26.8q11.4-10.8,29.4-10.8,17.6,0,29,10.8a35.43,35.43,0,0,1,11.4,26.8,34.34,34.34,0,0,1-11.4,26.2q-11.4,10.61-29,10.6Q461.24,284,449.84,273.4Z"/>
        </g>
    </g>
</svg>